<svg xmlns="http://www.w3.org/2000/svg" xmlns:xlink="http://www.w3.org/1999/xlink" version="1.1" x="0px" y="0px" viewBox="0 0 90 112.5" enable-background="new 0 0 90 90" xml:space="preserve"><g><path fill="#ffffff" d="M24.897,24.106H65.11c0.604,0,1.103-0.499,1.103-1.109s-0.491-1.099-1.103-1.099H24.897   c-0.608,0-1.11,0.489-1.11,1.099S24.289,24.106,24.897,24.106z"/><path fill="#ffffff" d="M24.897,31.425H65.11c0.604,0,1.103-0.487,1.103-1.091c0-0.61-0.491-1.109-1.103-1.109H24.897   c-0.608,0-1.11,0.499-1.11,1.109C23.787,30.938,24.289,31.425,24.897,31.425z"/><path fill="#ffffff" d="M24.897,38.769H65.11c0.604,0,1.103-0.488,1.103-1.099c0-0.607-0.491-1.103-1.103-1.103H24.897   c-0.608,0-1.11,0.497-1.11,1.103C23.787,38.281,24.289,38.769,24.897,38.769z"/><path fill="#ffffff" d="M24.897,53.439H65.11c0.604,0,1.103-0.489,1.103-1.107c0-0.598-0.491-1.095-1.103-1.095H24.897   c-0.608,0-1.11,0.49-1.11,1.095C23.787,52.949,24.289,53.439,24.897,53.439z"/><path fill="#ffffff" d="M24.897,60.782H65.11c0.604,0,1.103-0.499,1.103-1.108s-0.491-1.1-1.103-1.1H24.897   c-0.608,0-1.11,0.49-1.11,1.1S24.289,60.782,24.897,60.782z"/><path fill="#ffffff" d="M24.897,68.106H65.11c0.604,0,1.103-0.488,1.103-1.091c0-0.609-0.491-1.104-1.103-1.104H24.897   c-0.608,0-1.11,0.494-1.11,1.104C23.787,67.619,24.289,68.106,24.897,68.106z"/><path fill="#ffffff" d="M76.268,5H13.749c-1.021,0-1.848,0.814-1.848,1.831v76.337c0,1.018,0.826,1.832,1.848,1.832h62.519   c1.006,0,1.831-0.82,1.831-1.832V6.831C78.099,5.813,77.273,5,76.268,5z M74.437,81.347H15.577V8.662h58.859V81.347z"/></g></svg>